<?xml version="1.0" encoding="UTF-8" standalone="no"?>
<!DOCTYPE svg PUBLIC "-//W3C//DTD SVG 1.1//EN" "http://www.w3.org/Graphics/SVG/1.1/DTD/svg11.dtd">
<svg width="100%" height="100%" viewBox="0 0 78 168" version="1.1" xmlns="http://www.w3.org/2000/svg" xmlns:xlink="http://www.w3.org/1999/xlink" xml:space="preserve" xmlns:serif="http://www.serif.com/" style="fill-rule:evenodd;clip-rule:evenodd;">
    <g id="Artboard1" transform="matrix(1,0,0,1,-155,-66)">
        <rect x="155" y="66" width="78" height="168" style="fill:none;"/>
        <clipPath id="_clip1">
            <rect x="155" y="66" width="78" height="168"/>
        </clipPath>
        <g clip-path="url(#_clip1)">
            <g transform="matrix(0.800014,0,0,0.800014,-117.562029,-299.169331)">
                <path d="M389.95,470.23L388.173,469.341L384.618,470.674L382.841,474.673L380.619,479.561L378.842,485.337L373.51,485.782L371.288,486.67L370.4,488.892L371.733,491.113L378.842,492.891L379.286,499.556L381.508,506.665L399.281,507.554L399.281,502.222L401.502,500.444L402.835,495.557L402.835,493.779L407.723,493.779L410.833,492.002L412.166,489.336L407.723,488.003L403.28,488.003L401.947,479.117L400.169,473.785L396.615,470.23L389.95,470.23Z" style="stroke:black;stroke-width:1px;"/>
                <path d="M379.29,504.45L373.958,510.671L364.627,512.892L356.185,521.779L353.963,531.999L357.074,548.439L360.184,551.549L360.628,573.765L364.183,575.987L413.059,580.874L412.615,575.098L416.614,571.988L415.725,557.325L425.5,533.331L420.612,524.001L417.946,518.224L408.616,513.337L404.172,512.004L397.507,504.894L379.29,504.45Z" style="stroke:black;stroke-width:1px;"/>
                <path d="M362.85,576.87L361.073,589.311L359.295,594.643L362.85,601.308L414.392,613.305L414.392,603.53L411.282,577.759L362.85,576.87Z" style="stroke:black;stroke-width:1px;"/>
                <path d="M361.52,602.2L356.188,610.198L353.966,618.64L353.966,626.194L359.298,634.192L353.078,639.524L352.633,645.744L349.079,659.518L347.746,667.516L347.746,675.514L361.964,677.736L370.85,662.185L376.182,650.188L377.515,645.744L375.294,641.301L379.293,633.747L381.959,621.75L385.513,622.195L386.846,619.973L388.179,628.415L388.179,639.079L389.068,642.634L386.846,649.743L384.625,664.406L384.625,670.627L397.511,674.181L405.953,673.293L408.619,660.852L409.508,658.63L407.286,655.964L408.619,647.966L413.951,645.745L415.894,611.087L361.52,602.2Z" style="stroke:black;stroke-width:1px;"/>
            </g>
        </g>
    </g>
</svg>
